<svg width="48" height="42" viewBox="0 0 48 42" fill="none" xmlns="http://www.w3.org/2000/svg">
<path d="M9.42636 14.058C9.5648 13.7874 9.84947 13.624 10.1505 13.6279C10.4546 13.6349 10.7268 13.8154 10.8528 14.0923L13.5276 19.9847H20.6007C20.8659 19.9847 21.1133 20.1169 21.2603 20.3378L21.9447 21.3653L22.5926 20.3503C22.738 20.1224 22.99 19.9847 23.2599 19.9847H24.6234L27.7321 11.2207C27.8511 10.8847 28.1801 10.67 28.5356 10.6949C28.891 10.7206 29.1858 10.9804 29.2558 11.3296L31.8007 24.0572L34.6038 13.5361C34.694 13.1963 34.9981 12.9567 35.3505 12.9481C35.6989 12.9404 36.0178 13.1644 36.1244 13.4996L38.7533 21.7557L40.3562 19.2038C40.5009 18.9728 40.7545 18.8328 41.0275 18.8328H46.9121C47.6051 14.5721 46.5917 10.488 45.005 7.53015C42.6219 3.08748 38.635 0.302253 34.6007 0.261031C34.5688 0.261031 34.5369 0.260254 34.505 0.260254C31.6203 0.260254 27.5074 1.59492 23.7149 7.66003C19.8805 1.52725 15.7162 0.235365 12.8291 0.261031C8.7948 0.302253 4.80792 3.08748 2.4248 7.53015C0.695027 10.754 -0.354195 15.3149 0.745583 19.9847H6.38447L9.42636 14.058Z" fill="#92D1C9"/>
<path d="M39.1877 24.0438C39.0235 24.3052 38.7241 24.4475 38.4169 24.4086C38.1112 24.3697 37.8553 24.1566 37.762 23.8634L35.4372 16.5647L32.4568 27.7531C32.3642 28.1007 32.0492 28.3411 31.6914 28.3411C31.6829 28.3411 31.6751 28.3411 31.6665 28.3403C31.2987 28.3286 30.9868 28.0649 30.9144 27.7041L28.2661 14.4585L25.9304 21.0424C25.8184 21.3589 25.519 21.5697 25.1838 21.5697H23.6943L22.6264 23.2419C22.4825 23.4675 22.2344 23.6052 21.9661 23.6075C21.7032 23.6153 21.4473 23.4776 21.2988 23.2544L20.1764 21.5689H13.017C12.7059 21.5689 12.4243 21.3869 12.296 21.1038L10.0879 16.2388L7.57332 21.1381C7.43799 21.4025 7.16577 21.5682 6.86866 21.5682H1.2041C1.63888 22.8352 2.24088 24.0998 3.04432 25.3381C6.8391 31.1846 13.4868 36.3763 23.3677 41.2117L23.7161 41.3821L24.0645 41.2117C33.9447 36.3771 40.5931 31.1846 44.3879 25.3381C45.4348 23.7249 46.1425 22.0667 46.5781 20.4171H41.4681L39.1877 24.0438Z" fill="#5B9A93"/>
</svg>
