<svg width="91" height="84" viewBox="0 0 91 84" fill="none" xmlns="http://www.w3.org/2000/svg">
<path fill-rule="evenodd" clip-rule="evenodd" d="M18.6667 18.6667C23.8213 18.6667 28 14.488 28 9.33333C28 4.17868 23.8213 0 18.6667 0C13.512 0 9.33333 4.17868 9.33333 9.33333C9.33333 14.488 13.512 18.6667 18.6667 18.6667ZM18.6667 23.3333H4.66667L0 56H7.00003V84H16.3334V46.6667H12.1566L13.5566 32.6667H18.6667H21H39.6666H46.2232H49H51.3333H53.6667L53.6666 46.6667V84H63L63 56V43.3333L67.6667 51.3333H70L88.6667 84H93.3333L74.6667 51.3333H79.3333L63 23.3333H53.6667H51.3333H39.6666H18.6667ZM49 46.6667H44.8232H39.6666V56V84H49V46.6667ZM30.3333 46.6667H21V84H30.3333V46.6667ZM51.3333 18.6667C46.1787 18.6667 42 14.488 42 9.33333C42 4.17868 46.1787 0 51.3333 0C56.488 0 60.6667 4.17868 60.6667 9.33333C60.6667 14.488 56.488 18.6667 51.3333 18.6667Z" fill="#5A9B93"/>
</svg>
