<svg width="83" height="91" viewBox="0 0 83 91" fill="none" xmlns="http://www.w3.org/2000/svg">
<path fill-rule="evenodd" clip-rule="evenodd" d="M22.1333 20.2222C28.2453 20.2222 33.2 15.6953 33.2 10.1111C33.2 4.5269 28.2453 0 22.1333 0C16.0214 0 11.0667 4.5269 11.0667 10.1111C11.0667 15.6953 16.0214 20.2222 22.1333 20.2222ZM35.9667 55.6111L35.9667 91H24.9V60.6667H19.3667V91H8.3V60.6667V55.6111H0L5.53333 25.2778H24.9H35.9667H38.2586L54.8586 40.4444H77.4667L83 65.7222H74.7V91H63.6333V70.7778H58.1V91H47.0333V70.7778V65.7222V47.5941L35.9667 37.483V55.6111ZM71.9333 25.2778C71.9333 30.862 66.9786 35.3889 60.8667 35.3889C54.7547 35.3889 49.8 30.862 49.8 25.2778C49.8 19.6936 54.7547 15.1667 60.8667 15.1667C66.9786 15.1667 71.9333 19.6936 71.9333 25.2778Z" fill="#5A9B93"/>
</svg>
