<svg width="766" height="815" viewBox="0 0 766 815" fill="none" xmlns="http://www.w3.org/2000/svg">
<g clip-path="url(#clip0)">
<path d="M131.83 720.513C131.83 720.513 10.5746 686.789 25.6818 494.811C40.789 302.833 222.785 384.446 330.521 268.211C438.258 151.975 436.761 46.8701 599.636 126.008C762.51 205.146 617.24 406.081 633.51 450.288C649.78 494.494 736.948 549.823 732.296 608.096C727.65 666.376 690.456 714.227 666.051 720.596L131.83 720.513Z" fill="#93D0C9"/>
<path d="M304.211 322.276C305.469 319.817 308.055 318.334 310.789 318.369C313.551 318.433 316.024 320.072 317.168 322.587L341.464 376.11H405.712C408.121 376.11 410.367 377.311 411.703 379.317L417.92 388.65L423.805 379.43C425.126 377.36 427.415 376.11 429.866 376.11H442.251L470.489 296.503C471.57 293.451 474.558 291.502 477.787 291.728C481.016 291.961 483.693 294.32 484.329 297.492L507.445 413.101L532.907 317.535C533.726 314.448 536.488 312.272 539.689 312.194C542.854 312.124 545.75 314.158 546.718 317.203L570.597 392.196L585.158 369.017C586.472 366.918 588.775 365.647 591.255 365.647H644.707C651.002 326.946 641.797 289.848 627.384 262.981C605.738 222.627 569.523 197.328 532.878 196.953C532.589 196.953 532.299 196.946 532.009 196.946C505.806 196.946 468.447 209.069 433.999 264.161C399.17 208.455 361.345 196.72 335.12 196.953C298.475 197.328 262.261 222.627 240.614 262.981C224.902 292.265 215.371 333.693 225.361 376.11H276.581L304.211 322.276Z" fill="#92D1C9"/>
<path d="M574.54 412.981C573.049 415.355 570.329 416.648 567.539 416.294C564.762 415.941 562.438 414.005 561.59 411.342L540.473 345.046L513.401 446.673C512.56 449.831 509.699 452.014 506.449 452.014C506.371 452.014 506.301 452.014 506.223 452.007C502.881 451.901 500.048 449.506 499.391 446.228L475.336 325.914L454.12 385.718C453.103 388.593 450.383 390.508 447.338 390.508H433.809L424.109 405.697C422.802 407.746 420.548 408.997 418.111 409.018C415.723 409.088 413.398 407.838 412.049 405.81L401.854 390.501H336.823C333.997 390.501 331.439 388.848 330.274 386.276L310.217 342.086L287.376 386.587C286.147 388.989 283.674 390.494 280.976 390.494H229.522C233.472 402.002 238.94 413.49 246.238 424.737C280.707 477.843 341.09 525.001 430.841 568.923L434.006 570.47L437.171 568.923C526.916 525.008 587.306 477.843 621.775 424.737C631.284 410.085 637.713 395.022 641.67 380.038H595.254L574.54 412.981Z" fill="#5B9A93"/>
<path d="M562.762 273.863C566.131 285.212 565.599 296.049 564.109 304.312C579.621 270.331 590.884 248.598 591.189 248.009C591.473 247.466 592.118 247.262 592.636 247.571C593.146 247.873 593.338 248.56 593.047 249.111C592.7 249.767 578.543 277.093 560.074 318.476C559.861 318.99 559.719 319.307 559.676 319.405C559.662 319.427 559.648 319.442 559.634 319.465C550.109 340.836 539.47 365.882 529.001 392.913C537.548 379.926 553.641 357.521 566.407 351.574L570.798 349.529C578.358 346.013 588.848 341.138 598.395 336.414C620.758 287.408 651.391 228.925 619.715 202.784C590.778 178.908 570.315 215.039 556.953 251.307C558.492 258.204 560.428 266.022 562.762 273.863Z" fill="white"/>
<path d="M191.833 522.974C174.981 488.17 159.604 461.29 159.448 461.018C159.306 460.769 159.377 460.445 159.611 460.294C159.845 460.143 160.15 460.219 160.292 460.468C160.448 460.732 175.846 487.649 192.712 522.491C205.99 549.914 222.516 587.177 231.474 619.264L245.162 524.287C245.162 524.287 208.976 474.36 202.89 454.868C196.798 435.376 141.816 435.852 141.816 435.852C149.604 457.592 130.766 501.799 130.766 501.799L136.986 522.543H124.028C116.254 547.092 128.468 581.148 128.468 581.148L141.809 589.555L130.737 593.124C137.646 640.228 227.502 646.771 227.502 646.771L231.112 621.732C222.345 589.253 205.394 550.978 191.833 522.974ZM195.826 552.593C195.727 552.736 195.578 552.819 195.422 552.819C195.323 552.819 195.223 552.789 195.138 552.721C181.669 542.692 165.803 539.817 154.859 539.16C142.993 538.451 134.22 540.141 134.135 540.164C133.865 540.217 133.61 540.028 133.553 539.741C133.504 539.455 133.681 539.183 133.95 539.13C134.035 539.115 142.93 537.402 154.909 538.111C165.981 538.768 182.038 541.688 195.698 551.861C195.933 552.019 195.982 552.351 195.826 552.593Z" fill="white"/>
<path d="M596.933 339.629C589.174 343.424 580.429 347.522 571.648 351.605L567.258 353.65C550.839 361.302 527.625 398.958 525.078 403.161C507.574 449.405 490.998 500.629 481.487 548.714C481.381 549.25 480.941 549.612 480.445 549.612C480.374 549.612 480.296 549.604 480.225 549.589C479.65 549.461 479.281 548.857 479.402 548.246C488.899 500.221 505.418 449.088 522.887 402.889C522.894 402.701 522.943 402.504 523.05 402.331C523.078 402.286 523.128 402.203 523.192 402.097C535.008 370.893 547.243 341.968 558.023 317.805C559.52 314.19 566.776 294.924 560.733 274.549C558.74 267.833 557.03 261.14 555.605 255.027C547.895 276.7 542.711 297.694 539.767 305.157C531.731 325.532 512.702 334.588 476.529 364.697C440.357 394.815 457.379 509.7 457.379 509.7L453.379 514.363C453.379 514.363 486.104 644.725 557.3 632.116C628.495 619.506 583.975 440.983 579.791 396.837C578.471 382.944 586.628 362.426 596.933 339.629Z" fill="white"/>
<path d="M499.673 206.912H208.479V648.974H499.673V206.912Z" fill="#5A9B93"/>
<path d="M468.125 238.312H234.48V621.596H468.125V238.312Z" fill="white"/>
<path d="M298.767 314.288C298.59 314.062 298.278 314.032 298.065 314.213L287.072 323.849C283.412 318.982 277.788 315.858 271.482 315.858C264.751 315.858 258.801 319.42 255.176 324.86L253.765 323.253C253.581 323.042 253.261 323.027 253.063 323.23C252.864 323.427 252.85 323.766 253.042 323.978L254.609 325.766C252.651 329.049 251.517 332.935 251.517 337.108C251.517 348.82 260.475 358.358 271.489 358.358C282.497 358.358 291.462 348.827 291.462 337.108C291.462 332.475 290.058 328.188 287.682 324.694L298.704 315.028C298.916 314.846 298.945 314.514 298.767 314.288ZM271.489 316.929C277.483 316.929 282.83 319.903 286.306 324.528L268.539 340.111L255.879 325.66C259.304 320.385 265.021 316.929 271.489 316.929ZM290.462 337.116C290.462 348.246 281.951 357.302 271.489 357.302C261.028 357.302 252.517 348.246 252.517 337.116C252.517 333.252 253.545 329.645 255.318 326.573L268.454 341.568L286.916 325.374C289.143 328.686 290.462 332.739 290.462 337.116Z" fill="#112649"/>
<path d="M295.959 388.332C295.782 388.106 295.469 388.076 295.257 388.257L284.263 397.893C280.603 393.026 274.979 389.902 268.674 389.902C261.943 389.902 255.992 393.464 252.368 398.905L250.956 397.297C250.772 397.086 250.453 397.071 250.254 397.267C250.056 397.463 250.041 397.803 250.233 398.014L251.8 399.803C249.843 403.085 248.708 406.972 248.708 411.145C248.708 422.857 257.666 432.395 268.681 432.395C279.688 432.395 288.654 422.864 288.654 411.145C288.654 406.511 287.249 402.225 284.873 398.731L295.895 389.064C296.101 388.891 296.136 388.559 295.959 388.332ZM268.681 390.973C274.674 390.973 280.022 393.947 283.497 398.573L265.73 414.156L253.07 399.705C256.496 394.437 262.212 390.973 268.681 390.973ZM287.653 411.16C287.653 422.291 279.142 431.346 268.681 431.346C258.219 431.346 249.708 422.291 249.708 411.16C249.708 407.296 250.736 403.689 252.51 400.618L265.645 415.612L284.107 399.418C286.334 402.731 287.653 406.783 287.653 411.16Z" fill="#112649"/>
<path d="M295.058 462.384C294.881 462.158 294.569 462.127 294.356 462.309L283.363 471.945C279.703 467.078 274.079 463.954 267.773 463.954C261.042 463.954 255.092 467.516 251.467 472.956L250.056 471.349C249.872 471.138 249.552 471.123 249.354 471.319C249.155 471.515 249.141 471.855 249.333 472.066L250.9 473.854C248.942 477.137 247.808 481.023 247.808 485.197C247.808 496.908 256.766 506.447 267.78 506.447C278.788 506.447 287.753 496.916 287.753 485.197C287.753 480.563 286.349 476.277 283.973 472.783L294.995 463.116C295.2 462.942 295.236 462.61 295.058 462.384ZM267.78 465.025C273.774 465.025 279.121 467.998 282.597 472.624L264.83 488.207L252.17 473.756C255.595 468.481 261.312 465.025 267.78 465.025ZM286.753 485.212C286.753 496.342 278.242 505.398 267.78 505.398C257.319 505.398 248.808 496.342 248.808 485.212C248.808 481.348 249.836 477.741 251.609 474.669L264.745 489.664L283.207 473.47C285.434 476.782 286.753 480.835 286.753 485.212Z" fill="#112649"/>
<path d="M451.741 320.257H310.01C309.734 320.257 309.514 320.023 309.514 319.729C309.514 319.434 309.734 319.2 310.01 319.2H451.741C452.018 319.2 452.238 319.434 452.238 319.729C452.238 320.023 452.018 320.257 451.741 320.257Z" fill="#112649"/>
<path d="M413.072 344.669H308.811C308.534 344.669 308.314 344.435 308.314 344.141C308.314 343.847 308.534 343.613 308.811 343.613H413.072C413.349 343.613 413.569 343.847 413.569 344.141C413.569 344.428 413.349 344.669 413.072 344.669Z" fill="#112649"/>
<path d="M450.294 397.124H307.024C306.747 397.124 306.527 396.89 306.527 396.595C306.527 396.301 306.747 396.067 307.024 396.067H450.294C450.571 396.067 450.791 396.301 450.791 396.595C450.791 396.89 450.571 397.124 450.294 397.124Z" fill="#112649"/>
<path d="M374.289 421.536H305.825C305.548 421.536 305.328 421.302 305.328 421.008C305.328 420.713 305.548 420.479 305.825 420.479H374.289C374.566 420.479 374.786 420.713 374.786 421.008C374.786 421.294 374.566 421.536 374.289 421.536Z" fill="#112649"/>
<path d="M451.741 473.99H304.364C304.087 473.99 303.867 473.756 303.867 473.462C303.867 473.168 304.087 472.934 304.364 472.934H451.741C452.017 472.934 452.237 473.168 452.237 473.462C452.237 473.749 452.017 473.99 451.741 473.99Z" fill="#112649"/>
<path d="M418.803 498.402H303.165C302.889 498.402 302.669 498.168 302.669 497.874C302.669 497.58 302.889 497.346 303.165 497.346H418.803C419.08 497.346 419.3 497.58 419.3 497.874C419.3 498.161 419.08 498.402 418.803 498.402Z" fill="#112649"/>
<path d="M297.463 209.432C297.463 262.951 274.05 306.334 245.162 306.334C216.274 306.334 192.861 262.951 192.861 209.432C192.861 209.432 212.118 202.542 218.246 199.562C225.416 196.075 246.049 183.563 246.049 183.563C246.049 183.563 266.213 196.173 272.944 199.562C279.072 202.648 297.463 209.432 297.463 209.432Z" fill="#93D0C9"/>
<path d="M287.944 215.198C287.944 258.966 268.794 294.456 245.169 294.456C221.544 294.456 202.394 258.974 202.394 215.198C202.394 215.198 219.473 209.342 224.87 206.701C230.395 204.006 246.091 193.864 246.091 193.864C246.091 193.864 261.624 204.489 267.163 207.312C272.085 209.825 287.944 215.198 287.944 215.198Z" fill="white"/>
<path d="M272.95 235.761H253.807V215.394H236.523V235.761H217.38V254.152H236.523V274.519H253.807V254.152H272.95V235.761Z" fill="#5A9B93"/>
<path d="M534.98 604.79C534.874 604.79 534.76 604.775 534.654 604.738C534.278 604.602 534.009 604.232 533.966 603.802C533.945 603.636 532.2 586.77 530.576 570.032C527.235 535.561 527.568 535.281 528.214 534.731C528.654 534.353 529.306 534.436 529.654 534.927C529.881 535.244 529.923 535.651 529.803 535.998C529.547 539.032 533.115 575.616 535.753 601.168L578.635 551.891C579.025 551.446 579.671 551.431 580.082 551.846C580.493 552.268 580.515 552.978 580.117 553.423L535.718 604.436C535.526 604.67 535.257 604.79 534.98 604.79Z" fill="#A1D1CE"/>
<path d="M554.081 664.014C553.662 664.014 553.258 663.727 553.109 663.267L534.016 604.043C533.895 603.674 533.966 603.251 534.2 602.957C534.434 602.655 534.796 602.511 535.158 602.579L595.955 613.997C596.516 614.103 596.892 614.676 596.792 615.28C596.7 615.891 596.168 616.298 595.608 616.193L536.527 605.1L555.045 662.535C555.237 663.116 554.953 663.757 554.414 663.953C554.301 663.991 554.187 664.014 554.081 664.014Z" fill="#A1D1CE"/>
<path d="M497.781 647.593C497.525 647.593 497.277 647.495 497.078 647.284C496.667 646.861 496.646 646.152 497.036 645.706L533.279 604.013L483.049 577.488C482.546 577.216 482.333 576.552 482.574 576.001C482.822 575.443 483.432 575.216 483.943 575.488L535.428 602.677C535.719 602.836 535.932 603.13 535.988 603.477C536.045 603.832 535.953 604.187 535.726 604.443L498.518 647.246C498.32 647.48 498.05 647.593 497.781 647.593Z" fill="#A1D1CE"/>
<path d="M526.618 603.674C526.618 598.64 530.363 594.573 534.98 594.573C539.598 594.573 543.343 598.648 543.343 603.674C543.343 608.699 539.598 612.774 534.98 612.774C530.363 612.774 526.618 608.707 526.618 603.674Z" fill="#A1D1CE"/>
<path d="M538.612 523.419C499.879 523.419 468.48 557.596 468.48 599.75C468.48 641.903 499.879 676.08 538.612 676.08C577.345 676.08 608.751 641.903 608.751 599.75C608.751 557.596 577.352 523.419 538.612 523.419ZM538.612 666.527C504.731 666.527 477.261 636.628 477.261 599.75C477.261 562.871 504.724 532.98 538.612 532.98C572.5 532.98 599.963 562.878 599.963 599.75C599.963 636.628 572.493 666.527 538.612 666.527Z" fill="#D9E8E7"/>
<path d="M538.853 666.119C505.206 666.119 477.828 636.387 477.828 599.848C477.828 563.301 505.206 533.569 538.853 533.569C572.5 533.569 599.878 563.301 599.878 599.848C599.87 636.387 572.493 666.119 538.853 666.119ZM538.853 536.919C507.043 536.919 481.162 565.15 481.162 599.848C481.162 634.546 507.043 662.776 538.853 662.776C570.656 662.776 596.537 634.546 596.537 599.848C596.537 565.15 570.656 536.919 538.853 536.919Z" fill="#82C1C1"/>
<path d="M530.661 636.991C529.604 636.991 528.668 636.236 528.469 635.157L489.751 421.144L465.203 429.543C464.033 429.943 462.77 429.316 462.38 428.154C461.983 426.985 462.6 425.717 463.763 425.324L490.758 416.088C491.375 415.884 492.049 415.952 492.609 416.276C493.169 416.609 493.552 417.159 493.666 417.801L532.845 634.364C533.065 635.579 532.264 636.734 531.058 636.96C530.923 636.975 530.788 636.991 530.661 636.991Z" fill="#C3942D"/>
<path d="M616.58 523.66C615.446 523.66 614.481 522.8 614.367 521.653C614.332 521.306 610.97 487.114 609.417 476.503C607.913 466.203 606.289 460.807 588.245 460.339C569.003 459.871 528.136 466.882 527.724 466.95C526.497 467.154 525.362 466.346 525.157 465.131C524.944 463.916 525.76 462.762 526.973 462.55C528.668 462.256 568.705 455.351 588.366 455.879C609.417 456.43 612.112 464.143 613.821 475.862C615.389 486.578 618.658 519.812 618.793 521.223C618.914 522.453 618.02 523.54 616.8 523.66C616.722 523.66 616.651 523.66 616.58 523.66Z" fill="#C3942D"/>
<path d="M513.249 539.477C512.149 539.477 511.199 538.67 511.05 537.546C510.88 536.323 511.731 535.199 512.958 535.033L625.468 519.744C626.681 519.578 627.808 520.431 627.971 521.653C628.135 522.876 627.283 524 626.064 524.166L513.554 539.455C513.447 539.47 513.348 539.477 513.249 539.477Z" fill="#C3942D"/>
<path d="M525.271 544.345L569.507 540.194L612.595 523.419L544.229 523.66L523.753 533.878L525.271 544.345Z" fill="#9E772B"/>
<path d="M463.359 650.151C462.302 650.151 461.366 649.396 461.175 648.317L422.882 438.915L398.327 447.314C397.164 447.714 395.902 447.095 395.504 445.918C395.107 444.756 395.731 443.488 396.895 443.088L423.889 433.852C424.499 433.64 425.173 433.708 425.733 434.04C426.286 434.365 426.676 434.923 426.797 435.565L465.558 647.517C465.778 648.725 464.984 649.887 463.771 650.113C463.622 650.136 463.494 650.151 463.359 650.151Z" fill="#C3942D"/>
<path d="M561.081 539.409C560.904 538.195 559.762 537.357 558.556 537.523C557.343 537.704 556.499 538.836 556.677 540.058L566.798 609.779L530.711 615.046C529.519 615.22 528.675 616.321 528.817 617.529L531.023 635.753L427.336 651.676C426.123 651.857 425.286 652.996 425.471 654.219C425.641 655.321 426.584 656.113 427.669 656.113C427.783 656.113 427.896 656.105 428.01 656.09L533.831 639.836C535.016 639.654 535.846 638.56 535.704 637.36L533.498 619.151L569.635 613.876C570.855 613.703 571.692 612.571 571.521 611.348L561.081 539.409Z" fill="#C3942D"/>
<path d="M633.646 605.07L629.496 607.462L625.51 609.764C625.51 609.764 587.551 579.609 575.72 556.124C563.89 532.64 565.308 508.666 565.308 508.666C565.308 508.666 540.47 527.456 520.512 535.855C500.546 544.262 472.452 549.703 459.196 541.296C457.409 540.156 455.841 538.904 454.473 537.561C445.671 528.973 444.841 517.321 444.841 517.321C444.841 517.321 452.834 514.839 475.325 505.142C475.339 505.134 475.339 505.134 475.339 505.134C482.127 502.425 489.46 499.497 496.737 496.599C507.341 492.373 517.802 488.23 526.157 484.91C533.392 482.05 539.066 479.831 541.882 478.76C554.755 473.87 570.678 469.576 581.572 476.405C582.451 476.949 583.295 477.567 584.111 478.262C591.168 484.389 595.516 496.26 600.892 511.797C603.765 520.114 606.935 529.478 610.978 539.575C611.907 541.892 612.822 544.254 613.744 546.646C615.283 552.714 627.603 586.061 627.674 586.227C631.312 597.357 633.646 605.07 633.646 605.07Z" fill="#5CB3A7"/>
<path d="M526.668 464.558C529.526 472.632 527.959 484.042 527.959 484.042L526.15 484.91C517.795 488.223 507.333 492.373 496.73 496.599C491.177 498.607 484.07 501.376 475.332 505.134C469.402 507.496 463.906 509.7 459.26 511.564C450.557 515.035 444.834 517.329 444.834 517.329L430.783 467.395C430.783 467.395 419.442 450.831 414.761 434.516C410.789 420.683 408.413 406.308 412.151 393.524C412.81 391.23 413.676 388.997 414.761 386.823C417.222 381.888 420.173 378.651 423.3 376.455C429.237 372.289 435.812 371.965 440.848 371.172C459.813 368.199 473.41 370.765 483.822 376.357C496.113 382.96 503.943 393.781 510.88 404.655C523.717 424.728 528.398 438.878 528.398 438.878C523.419 439.632 520.05 443.941 518.306 446.862C517.526 448.167 517.065 449.186 516.93 449.495C516.901 449.563 516.894 449.593 516.894 449.593C516.894 449.593 517.547 450.529 518.909 452.476C520.178 454.295 522.086 456.996 524.703 460.664C525.526 461.796 526.164 463.124 526.668 464.558Z" fill="#EAB370"/>
<path d="M483.836 376.349C479.694 380.379 472.282 385.759 460.969 387.631C444.592 390.34 428.265 380.175 423.308 376.447C429.244 372.282 435.819 371.957 440.855 371.165C459.827 368.191 473.424 370.757 483.836 376.349Z" fill="#EAB370"/>
<path d="M459.274 511.556C450.572 515.027 444.848 517.321 444.848 517.321L430.798 467.388C430.798 467.388 427.734 462.913 424.13 456.302C423.166 454.544 422.159 452.627 421.166 450.597C418.74 445.654 416.364 440.07 414.782 434.508C410.811 420.676 408.435 406.3 412.172 393.517C414.463 403.44 418.79 419.906 424.854 433.052C434.053 453.004 438.422 456.257 445.394 465.048C445.479 465.161 445.571 465.267 445.657 465.388C445.657 465.388 445.054 467.123 444.295 469.87C443.635 472.247 443.734 475.085 443.77 475.817C443.784 475.938 443.784 475.998 443.784 475.998L444.238 478.518C444.238 478.518 445.103 478.767 454.196 498.931C456.487 504.017 458.111 508.175 459.274 511.556Z" fill="#EAB370"/>
<path d="M518.306 446.854C517.526 448.16 517.065 449.178 516.93 449.488L508.674 438.878C506.461 423.966 492.659 407.508 492.659 407.508C492.659 407.508 495.617 407.817 504.064 418.201C512.511 428.592 511.391 437.467 511.391 437.467C513.845 441.059 516.455 444.507 518.306 446.854Z" fill="#EAB370"/>
<path d="M398.094 661.682L392.959 660.912L392.299 660.814L391.533 660.693C391.533 660.693 391.455 660.52 391.306 660.173C391.299 660.165 391.299 660.143 391.285 660.128C388.888 654.619 369.638 609.847 366.553 588.838C363.269 566.433 372.802 550.933 372.802 550.933C372.802 550.933 366.886 541.371 358.666 524.241C353.935 514.363 342.438 488.578 333.544 468.474C333.544 468.467 333.537 468.452 333.537 468.444C332.665 466.467 331.799 464.535 330.984 462.686C325.827 451.012 322.033 442.364 321.87 442.002C321.863 441.994 321.863 441.994 321.863 441.994C321.863 441.994 308.387 505.459 306.089 538.745C303.791 572.024 300.5 663.335 300.5 663.335L295.514 661.81H295.507L295.428 661.78L294.691 661.554L292.953 661.018C292.953 661.018 270.931 605.319 269.292 578.62C267.647 551.921 279.598 535.116 279.598 535.116C279.598 535.116 271.59 460.634 271.59 428.917C271.59 397.199 287.612 376.658 287.612 376.658C287.612 376.658 292.308 382.114 300.209 388.899C300.407 389.057 300.606 389.231 300.812 389.412C301.876 390.31 303.003 391.23 304.188 392.166C308.011 395.222 312.38 398.392 317.189 401.342C334.934 412.247 355.638 414.873 367.964 413.809C367.964 413.809 368.475 413.16 369.362 411.99C369.362 411.99 398.775 535.765 400.08 548.284C401.385 560.826 398.094 661.682 398.094 661.682Z" fill="#5C9A93"/>
<path d="M295.414 661.78L292.938 661.018C292.938 661.018 270.916 605.319 269.278 578.62C267.632 551.921 279.583 535.116 279.583 535.116C279.583 535.116 271.576 460.634 271.576 428.917C271.576 397.199 287.598 376.658 287.598 376.658C287.598 376.658 293.889 383.971 304.173 392.174C296.967 406.436 291.002 418.465 288.605 478.843C286.165 540.345 285.13 616.616 295.414 661.78Z" fill="#329C92"/>
<path d="M392.958 660.912L391.526 660.693C391.526 660.693 369.837 611.25 366.546 588.838C363.262 566.433 372.794 550.933 372.794 550.933C372.794 550.933 366.879 541.371 358.659 524.241C350.516 507.239 322.295 443.013 321.862 442.002C322.139 442.145 326.657 444.718 342.559 471.772C358.992 499.731 380.348 546.639 380.348 546.639C380.348 546.639 378.525 558.781 380.348 593.388C381.554 616.11 388.263 643.843 392.958 660.912Z" fill="#329C92"/>
<path d="M387.582 242.802C385.717 246.689 382.93 249.519 379.036 252.816C372.624 258.257 367.532 254.959 364.411 254.129C361.283 253.314 360.623 258.25 360.623 263.691C360.623 269.124 351.424 275.727 343.708 274.897C340.48 274.55 337.118 272.98 334.359 270.686C330.515 267.471 327.856 262.868 328.423 258.257C329.409 250.349 337.296 252.001 341.849 252.816C346.403 253.639 344.849 246.387 342.551 241.278C340.253 236.177 343.708 231.068 351.751 227.929C359.808 224.804 364.411 225.793 371.468 228.095C373.716 228.827 375.61 228.857 377.177 228.457C379.376 227.921 380.915 226.548 381.837 225.136C382.852 227.355 384.667 228.917 387.526 228.834C387.533 228.842 386.66 235.347 387.582 242.802Z" fill="#EAB370"/>
<path opacity="0.8" d="M387.582 242.802C385.717 246.689 382.929 249.519 379.036 252.816C372.624 258.257 367.531 254.959 364.411 254.129C361.283 253.314 360.623 258.25 360.623 263.691C360.623 269.124 351.424 275.727 343.707 274.897C340.48 274.55 337.118 272.98 334.359 270.686C343.225 269.343 351.672 260.068 351.672 252.816C351.672 242.682 358.325 245.398 369.34 247.255C380.341 249.104 381.248 239.957 378.05 231.641C377.667 230.63 377.369 229.574 377.184 228.457C379.383 227.921 380.922 226.548 381.844 225.136C382.858 227.355 384.674 228.917 387.533 228.834C387.533 228.842 386.66 235.347 387.582 242.802Z" fill="#EAB370"/>
<path d="M434.493 338.097C429.953 339.523 422.229 340.044 416.3 340.232C412.484 340.346 409.42 340.331 408.441 340.323C408.222 340.323 408.115 340.323 408.115 340.323V333.894C408.115 333.894 407.98 334.233 407.711 334.867C406.222 338.467 400.803 351.559 395.129 365.399C393.788 368.674 392.426 371.995 391.107 375.24C384.66 391.049 373.284 406.783 369.34 412.005C368.453 413.175 367.943 413.824 367.943 413.824C367.078 413.899 366.17 413.952 365.212 413.99C364.936 413.998 364.659 414.013 364.375 414.02C351.871 414.337 333.295 411.266 317.167 401.357C312.394 398.422 308.053 395.283 304.251 392.249C302.953 391.215 301.705 390.189 300.535 389.208C300.35 389.042 300.173 388.883 299.982 388.733C292.201 382.039 287.591 376.666 287.591 376.666C291.534 368.259 307.556 345.522 310.018 340.587C312.479 335.644 317.167 317.345 324.068 296.577C330.21 278.104 340.246 268.241 352.46 262.121C353.97 261.351 355.517 260.649 357.098 259.993C364.276 257.02 370.716 255.918 376.404 255.903C379.397 255.888 382.192 256.189 384.774 256.672C385.022 256.71 385.27 256.763 385.504 256.808C387.504 257.208 389.37 257.706 391.114 258.265C397.59 260.332 404.59 263.426 410.959 267.969C411.158 268.105 411.364 268.256 411.562 268.407C412.364 268.988 413.151 269.592 413.924 270.226C421.52 276.398 427.868 284.85 430.79 296.336C436.464 318.575 434.493 338.097 434.493 338.097Z" fill="#3E2B2C"/>
<path d="M413.924 270.211C410.2 272.157 402.994 274.904 395.547 272.346C388.419 269.894 380.759 261.374 376.404 255.895C382.043 255.88 386.944 256.937 391.114 258.257C398.618 260.649 406.817 264.423 413.924 270.211Z" fill="#2B1C1E"/>
<path d="M344.729 325.57C344.729 325.57 343.516 325.389 341.083 325.389C337.388 325.389 335.168 325.389 335.168 325.389L335.317 327.691C333.338 337.131 320.209 366.026 310.351 381.013C307.648 385.125 305.684 388.914 304.258 392.234C293.924 384.016 287.598 376.651 287.598 376.651C291.541 368.244 307.563 345.507 310.024 340.572C312.486 335.629 317.174 317.33 324.075 296.562C330.217 278.089 340.253 268.226 352.467 262.106C343.239 285.537 344.863 316.862 344.729 325.57Z" fill="#2B1C1E"/>
<path d="M416.3 340.24C411.655 340.383 408.115 340.331 408.115 340.331V333.901C408.115 333.901 401.796 349.137 395.129 365.399C399.009 343.221 413.981 309.768 413.981 309.768C413.981 309.768 414.676 330.143 416.3 340.24Z" fill="#2B1C1E"/>
<path d="M644.986 563.301C644.986 583.08 643.504 603.591 643.504 603.591H636.113L627.659 586.227V586.219C623.992 575.036 619.006 560.403 613.729 546.639C613.729 546.624 613.729 546.624 613.729 546.616C613.729 546.616 611.431 521.766 614.531 504.214L600.884 511.79C599.721 508.439 598.608 505.24 597.515 502.244C593.508 491.392 589.636 483.054 584.11 478.254C583.302 477.552 582.451 476.941 581.571 476.398C581.571 476.398 611.715 467.063 621.815 465.863C631.922 464.656 644.241 464.656 646.71 479.243C649.178 493.837 644.986 543.522 644.986 563.301Z" fill="#5CB3A7"/>
<path d="M638.631 603.591H636.121L627.666 586.227V586.219C623.999 575.035 619.013 560.403 613.736 546.639C613.736 546.624 613.736 546.624 613.736 546.616C613.736 546.616 611.438 521.766 614.538 504.213L600.885 511.79C599.721 508.439 598.608 505.24 597.516 502.244C605.317 497.414 625.517 485.348 625.517 485.348C625.517 485.348 622.233 507.104 623.545 539.726C624.546 564.871 634.227 592.316 638.631 603.591Z" fill="#5C9A93"/>
<path d="M447.728 217.22C447.153 219.839 446.394 221.952 445.579 223.665C443.77 227.355 441.642 229.143 440.365 229.951C440.472 229.498 440.571 229.038 440.663 228.585C443.124 215.485 440.167 212.911 435.982 210.738C431.791 208.565 427.351 210.738 427.351 210.738C427.351 210.738 426.365 206.829 418.478 204.852C410.591 202.875 402.952 205.84 398.76 209.553C394.569 213.258 390.129 217.711 390.129 217.711C390.129 217.711 389.965 213.002 387.519 211.334C388.958 208.029 390.703 204.271 392.675 200.407C395.406 195.072 399.115 191.314 403.016 188.808C408.271 185.405 413.86 184.281 417.818 184.59C426.265 185.254 427.187 189.208 427.187 189.208C427.187 189.208 435.571 188.22 441.564 192.333C447.543 196.453 450.189 205.848 447.728 217.22Z" fill="#EAB370"/>
<path opacity="0.8" d="M445.579 223.665C443.77 227.355 441.642 229.144 440.365 229.951C440.472 229.498 440.571 229.038 440.663 228.585C443.124 215.485 440.167 212.911 435.982 210.738C431.791 208.565 427.351 210.738 427.351 210.738C427.351 210.738 426.365 206.829 418.478 204.852C410.591 202.875 402.952 205.841 398.76 209.553C394.569 213.259 390.129 217.711 390.129 217.711C390.129 217.711 389.965 213.002 387.519 211.334C388.958 208.029 390.703 204.271 392.675 200.407C395.406 195.072 399.115 191.314 403.016 188.809C401.023 193.359 399.03 199.585 398.512 205.101C398.512 205.101 408.619 198.921 416.435 199.17C424.251 199.419 430.308 205.35 430.308 205.35C436.961 202.135 442.387 205.848 445.089 217.137C445.579 219.19 445.692 221.401 445.579 223.665Z" fill="#D7A029"/>
<path d="M645.568 661.999C644.895 661.999 644.221 661.69 643.788 661.101L621.886 631.784C621.673 631.497 621.532 631.165 621.475 630.81L616.921 603.493C616.723 602.278 617.538 601.131 618.744 600.927C619.971 600.731 621.106 601.546 621.312 602.761L625.773 629.55L647.349 658.437C648.086 659.426 647.888 660.822 646.909 661.561C646.498 661.848 646.029 661.999 645.568 661.999Z" fill="#C3942D"/>
<path d="M613.687 452.061C613.19 453.374 609.58 450.574 609.914 451.072C610.24 451.563 613.027 453.872 612.382 455.027C611.878 455.902 606.736 454.31 604.296 453.495C603.849 453.321 603.459 453.185 603.232 453.125C603.452 453.208 603.828 453.336 604.296 453.495C605.644 454.031 607.488 454.997 606.963 456.181C606.913 456.279 606.843 456.378 606.736 456.43C604.963 457.638 595.289 454.702 595.289 454.702C595.289 454.702 579.515 460.634 566.202 463.758C554.464 466.527 534.03 466.339 526.675 464.558C526.171 463.124 525.533 461.796 524.71 460.664C522.093 456.989 520.185 454.295 518.916 452.476C518.27 451.457 517.604 450.476 516.901 449.593C516.901 449.593 517.199 448.846 517.802 447.76C519.341 444.922 522.888 439.708 528.406 438.878C528.406 438.878 532.519 442.341 535.966 443.488C539.413 444.643 567.025 445.964 578.515 445.805C590.026 445.639 593.31 444.817 593.31 444.817C593.31 444.817 599.715 439.044 605.311 443.164C610.892 447.284 614.176 450.748 613.687 452.061Z" fill="#F2B6AC"/>
<path d="M606.721 456.43C604.948 457.638 595.274 454.702 595.274 454.702C595.274 454.702 579.5 460.634 566.187 463.758C554.449 466.527 534.015 466.339 526.66 464.558C526.157 463.124 525.518 461.796 524.696 460.664C522.079 456.989 520.171 454.295 518.901 452.476C518.256 451.457 517.589 450.476 516.887 449.593C516.887 449.593 517.185 448.846 517.787 447.76C523.157 451.819 529.086 455.864 539.243 458.166C550.91 460.792 566.358 459.645 576.046 458.166C585.749 456.679 593.636 452.378 593.636 452.378C593.636 452.378 594.948 451.306 599.062 453.495C602.005 455.064 605.168 456.015 606.721 456.43Z" fill="#F6958F"/>
<path d="M441.549 371.225C436.039 371.927 430.535 373.738 427.01 375.081C424.634 375.972 423.158 376.666 423.158 376.666C411.08 364.305 408.122 340.331 408.122 340.331C410.413 340.331 413.278 340.18 416.264 339.961C424.861 339.327 434.492 338.104 434.492 338.104L441.549 371.225Z" fill="#F2B6AC"/>
<path d="M427.01 375.081C424.634 375.972 423.158 376.666 423.158 376.666C411.08 364.305 408.122 340.331 408.122 340.331C410.413 340.331 413.278 340.18 416.264 339.961C417.761 347.945 421.47 365.271 427.01 375.081Z" fill="#F6958F"/>
<path d="M440.656 228.593C440.571 229.045 440.464 229.506 440.358 229.958C437.223 242.765 423.846 257.397 415.512 260.974C413.051 262.03 410.285 262.649 407.484 262.777C402.703 262.996 397.845 261.728 394.228 258.544C392.54 257.072 391.128 255.171 390.121 252.816C388.752 249.609 387.986 246.115 387.582 242.802C386.653 235.346 387.532 228.842 387.532 228.842C384.674 228.917 382.858 227.355 381.844 225.144C379.518 220.012 381.511 211.312 384.95 210.798C386.007 210.64 386.844 210.881 387.511 211.342C389.958 213.017 390.121 217.718 390.121 217.718C390.121 217.718 393.852 213.983 397.703 210.489C398.05 210.18 398.405 209.863 398.753 209.561C402.944 205.856 410.583 202.89 418.47 204.859C426.357 206.837 427.343 210.746 427.343 210.746C427.343 210.746 431.783 208.572 435.975 210.746C440.159 212.919 443.117 215.492 440.656 228.593Z" fill="#F2B6AC"/>
<path d="M394.228 258.544C392.54 257.072 391.128 255.171 390.121 252.816C388.752 249.609 387.986 246.115 387.582 242.802C386.653 235.347 387.532 228.842 387.532 228.842C384.674 228.917 382.858 227.355 381.844 225.144C379.518 220.012 381.511 211.312 384.95 210.798C386.007 210.64 386.844 210.881 387.511 211.342C389.958 213.017 390.121 217.718 390.121 217.718C390.121 217.718 393.852 213.983 397.703 210.489C394.015 225.099 388.823 244.364 394.228 258.544Z" fill="#F6958F"/>
<path d="M604.289 453.495C603.58 453.216 602.998 453.05 602.998 453.05C602.998 453.05 603.516 453.231 604.289 453.495Z" fill="#F2B6AC"/>
<path d="M480.587 363.234C479.445 367.95 477.047 371.112 474.26 373.247C471.827 375.104 469.111 376.175 466.657 376.794C466.494 376.824 466.352 376.862 466.196 376.9C466.196 376.9 466.196 376.9 466.182 376.9C465.38 377.089 464.628 377.217 463.905 377.322C463.756 377.345 463.621 377.36 463.479 377.375C463.444 377.383 463.401 377.383 463.359 377.383C460.905 377.692 459.203 377.564 459.203 377.564V390.913C457.153 393.336 444.599 385.971 441.549 379.209C441.053 378.115 440.549 376.975 440.074 375.828C438.818 372.923 437.641 369.995 436.747 367.761L435.222 363.883C435.222 363.883 428.165 362.237 427.016 355.151C426.179 349.997 427.669 347.567 432.272 348.398C432.471 348.428 432.662 348.496 432.846 348.556C435.896 351.416 438.606 357.378 438.606 357.378C438.606 357.378 439.811 352.261 439.67 346.828C439.499 340.24 437.201 340.647 434.244 334.392C434.187 334.263 434.144 334.143 434.095 334.022C433.804 333.162 433.534 332.181 433.272 331.026C432.861 326.506 436.315 323.08 441.336 320.816C441.407 320.778 441.471 320.748 441.542 320.718C447.861 317.911 453.628 319.065 462.827 315.111C464.82 314.251 466.55 313.179 468.054 312.017C469.643 313.171 471.388 315.79 473.182 320.054C476.317 327.472 484.36 347.575 480.587 363.234Z" fill="#F2B6AC"/>
<path d="M541.881 478.752C541.881 478.752 541.725 478.82 541.399 478.971C541.158 479.069 540.817 479.22 540.371 479.394C540.371 479.394 540.371 479.394 540.363 479.394C538.697 480.088 535.576 481.31 530.703 483.061C522.816 485.891 519.206 487.159 517.887 487.649C516.575 488.14 498.659 492.592 475.161 489.302C451.671 485.997 446.408 478.918 443.45 475.621C443.45 475.621 443.713 470.217 445.897 464.724C446.145 464.075 446.429 463.418 446.748 462.762C449.706 456.672 455.125 453.042 455.125 453.042C462.352 461.449 480.92 466.225 492.673 469.523C504.425 472.813 519.369 475.953 519.369 475.953C519.369 475.953 520.518 474.134 530.384 474.466C537.512 474.707 540.349 476.843 541.364 477.998C541.754 478.45 541.881 478.752 541.881 478.752Z" fill="#F2B6AC"/>
<path d="M414.698 220.676C416.357 221.461 413.052 215.07 408.123 213.922C403.193 212.768 401.222 214.413 401.222 216.224C401.222 218.043 411.57 219.197 414.698 220.676Z" fill="#D7A029"/>
<path d="M426.513 224.963C425.208 224.804 429.152 221.174 434.414 222.163C439.677 223.152 440.33 225.951 439.84 227.106C439.344 228.26 432.088 225.627 426.513 224.963Z" fill="#D7A029"/>
<path d="M480.226 387.955C479.992 387.389 479.843 387.042 479.843 387.042C479.843 387.042 479.992 387.404 480.226 387.955Z" fill="#F2B6AC"/>
<path d="M478.615 390.506C478.615 390.74 478.814 392.008 479.147 393.585C478.878 391.623 478.615 390.264 478.615 390.506Z" fill="#F2B6AC"/>
<path d="M436.748 367.769L435.23 363.89C435.23 363.89 435.826 365.452 436.748 367.769Z" fill="#591913"/>
<path d="M471.622 308.463C470.679 309.685 469.48 310.908 468.062 312.009C466.565 313.172 464.828 314.243 462.835 315.103C453.636 319.058 447.869 317.903 441.55 320.71C436.422 322.989 432.854 326.445 433.28 331.026C433.365 331.977 433.649 332.973 434.103 334.022C434.152 334.143 434.188 334.263 434.252 334.392C437.209 340.648 439.507 340.248 439.677 346.828C439.812 352.269 438.614 357.378 438.614 357.378C438.614 357.378 437.025 349.922 432.854 348.556C432.67 348.496 432.478 348.428 432.28 348.398C427.677 347.568 426.187 349.997 427.024 355.152C428.166 362.245 435.23 363.883 435.23 363.883C435.23 363.883 435.833 365.452 436.755 367.761L436.769 367.792C436.713 367.656 429.492 369.324 423.244 357.378C420.52 352.178 418.768 346.888 417.733 341.727C416.371 335.033 416.215 328.543 416.676 322.695C417.492 312.311 423.407 306.214 433.925 302.26C444.437 298.305 472.041 295.664 474.013 299.294C475.155 301.384 474.303 305.006 471.622 308.463Z" fill="#A4C4B5"/>
<path d="M441.549 338.844C439.443 340.511 442.457 333.78 446.408 332.686C450.351 331.592 455.117 332.905 454.954 335.048C454.784 337.191 444.266 336.693 441.549 338.844Z" fill="#87AC9A"/>
<path d="M466.785 332.294C464.87 332.294 465.941 328.302 468.679 327.185C473.445 325.238 476.126 327.532 476.254 327.872C476.368 328.211 468.92 332.294 466.785 332.294Z" fill="#87AC9A"/>
<path d="M292.932 661.025V676.691H325.799L300.492 663.327L292.932 661.025Z" fill="#EAB370"/>
<path d="M391.526 660.694L389.221 674.209H417.818L398.101 661.682L391.526 660.694Z" fill="#EAB370"/>
<path d="M627.659 586.219C623.992 575.035 619.006 560.403 613.736 546.631C615.268 552.713 627.595 586.053 627.659 586.219Z" fill="#F26A2F"/>
<path d="M475.346 505.126C458.331 511.918 444.848 517.314 444.848 517.314C444.848 517.314 452.848 514.831 475.332 505.126C475.339 505.134 475.339 505.134 475.346 505.126Z" fill="#F26A2F"/>
<path d="M399.25 460.664C398.775 460.611 398.541 460.037 398.434 459.237C398.434 459.23 398.434 459.23 398.434 459.215C398.221 457.547 398.59 455.027 398.59 455.027C398.59 455.027 398.491 455.291 398.314 455.721C397.675 457.298 396.044 461.018 395.136 460.634C394.675 460.437 394.448 459.2 394.349 457.796C394.349 457.796 394.349 457.796 394.349 457.789C394.2 455.751 394.321 453.382 394.321 453.382C394.321 453.382 394.143 454.317 393.845 455.464C393.37 457.26 392.597 459.554 391.689 459.419C391.108 459.328 390.746 458.37 390.519 457.23C390.164 455.472 390.129 453.299 390.129 453.299C390.129 453.299 390.129 455.495 389.774 457.26C389.774 457.268 389.774 457.283 389.767 457.291C389.547 458.347 389.207 459.26 388.639 459.419C388.129 459.562 387.185 457.147 386.192 453.94C384.327 447.926 382.242 439.149 382.242 439.149C382.242 439.149 380.518 435.497 374.596 428.924C368.681 422.336 346.254 382.846 341.076 368.01C335.899 353.182 336.147 333.154 335.161 325.396C335.161 325.396 338.679 324.944 344.729 325.578C346.304 325.744 348.048 325.985 349.956 326.317C359.155 327.97 364.744 331.26 364.744 331.26C364.744 339.168 366.056 362.411 366.056 362.411C366.056 362.411 371.156 372.795 375.589 385.646C380.029 398.497 388.405 430.803 388.732 431.301C389.065 431.792 401.718 437.723 403.193 445.315C404.669 452.883 400.725 460.792 399.25 460.664Z" fill="#F2B6AC"/>
<path d="M407.491 262.777C406.711 264.392 405.271 267.381 403.519 270.98C398.058 282.232 389.561 299.46 388.894 299.286C388.242 299.128 388.987 279.115 389.568 265.411C389.859 258.249 390.129 252.816 390.129 252.816C393.299 260.234 400.491 263.094 407.491 262.777Z" fill="#F2B6AC"/>
<path d="M407.491 262.777C406.711 264.392 405.271 267.381 403.52 270.98C397.959 270.542 392.448 267.35 389.568 265.411C389.859 258.25 390.129 252.816 390.129 252.816C393.299 260.234 400.491 263.094 407.491 262.777Z" fill="#F6958F"/>
<path d="M386.192 453.94C384.327 447.926 382.242 439.149 382.242 439.149C382.242 439.149 380.518 435.497 374.596 428.924C368.681 422.336 346.254 382.846 341.076 368.01C335.899 353.182 336.147 333.154 335.161 325.396C335.161 325.396 338.679 324.944 344.729 325.578C344.587 343.711 345.162 355.295 350.446 370.984C356.113 387.789 366.468 408.466 373.617 420.502C380.767 432.539 383.724 436.946 384.214 437.459C384.519 437.783 385.121 446.582 386.192 453.94Z" fill="#F6958F"/>
<path d="M463.359 377.398C460.905 377.707 459.203 377.579 459.203 377.579V381.028C453.876 379.133 446.294 376.628 440.074 375.836C438.818 372.93 437.641 370.002 436.747 367.769L435.222 363.89C435.222 363.89 428.165 362.245 427.016 355.159C426.179 350.005 427.669 347.575 432.272 348.405C432.471 348.435 432.662 348.503 432.846 348.563C437.329 350.337 438.606 357.385 438.606 357.385C438.606 357.385 439.811 352.269 439.67 346.835C439.499 340.247 437.201 340.655 434.244 334.399C434.187 334.271 434.144 334.15 434.095 334.029C433.804 333.169 433.534 332.188 433.272 331.033C432.861 326.513 436.315 323.087 441.336 320.823C440.606 336.195 439.549 345.039 443.656 358.321C447.436 370.599 453.826 378.251 463.359 377.398Z" fill="#F6958F"/>
<path d="M466.657 376.794C466.657 376.794 466.657 376.794 466.657 376.802C466.494 376.832 466.352 376.87 466.196 376.907C466.352 376.87 466.494 376.832 466.657 376.794Z" fill="#F6958F"/>
<path d="M484.532 392.951C483.425 394.588 481.347 390.483 480.382 388.302C481.624 391.396 484.581 399.26 482.808 400.641C482.077 401.207 481.375 400.399 480.78 399.026C480.765 399.018 480.765 399.003 480.765 398.995C480.148 397.63 479.631 395.713 479.248 394.045C479.248 394.038 479.24 394.038 479.248 394.022C479.219 393.872 479.177 393.713 479.148 393.577C478.886 391.623 478.616 390.257 478.616 390.506C478.616 390.747 478.815 392.008 479.148 393.577C479.162 393.668 479.169 393.758 479.177 393.849C479.177 393.864 479.177 393.879 479.191 393.879C479.326 394.936 479.475 396.151 479.567 397.381C479.567 397.388 479.567 397.388 479.567 397.403C479.85 400.807 479.808 404.248 478.616 404.61C477.786 404.866 476.971 403.87 476.24 402.422C474.992 399.977 474.013 396.271 473.758 395.23C473.928 396.09 474.098 396.943 474.247 397.758C475.091 402.444 475.347 405.968 473.694 404.097C471.722 401.871 466.296 387.042 466.296 387.042C466.296 387.042 468.765 398.165 466.296 398.414C464.715 398.573 462.417 392.204 460.984 387.623C460.176 385.073 459.644 383.08 459.644 383.08C459.438 382.356 459.296 381.624 459.211 380.907V377.564C459.211 377.564 467.793 378.198 474.269 373.24C475.035 373.715 475.808 374.349 476.545 375.096C481.687 380.311 485.815 391.042 484.532 392.951Z" fill="#F2B6AC"/>
<path d="M476.537 375.112C473.353 380.696 466.941 384.424 460.976 387.631C460.168 385.08 459.636 383.088 459.636 383.088C459.43 382.364 459.288 381.632 459.203 380.915V377.572C459.203 377.572 467.785 378.206 474.261 373.248C475.027 373.731 475.793 374.357 476.537 375.112Z" fill="#F6958F"/>
<path d="M541.881 478.752C541.881 478.752 538.59 480.239 530.703 483.061C522.816 485.891 519.206 487.159 517.887 487.649C516.575 488.14 498.659 492.592 475.161 489.302C451.671 485.997 446.408 478.918 443.45 475.62C443.45 475.62 443.713 470.217 445.897 464.724C450.564 470.783 460.167 477.439 475.346 481.552C491.758 486.004 514.277 485.68 522.001 483.529C522.001 483.529 533.413 476.058 541.364 477.998C541.754 478.45 541.881 478.752 541.881 478.752Z" fill="#F6958F"/>
<path d="M629.497 607.469L625.511 609.771C625.511 609.771 587.551 579.616 575.721 556.132C563.89 532.648 565.309 508.673 565.309 508.673C565.309 508.673 540.47 527.464 520.512 535.863C500.546 544.269 472.452 549.71 459.196 541.304C457.409 540.164 455.842 538.911 454.473 537.568C454.288 534.512 454.175 532.739 454.175 532.739C454.175 532.739 525.264 511.881 546.308 504.221C567.337 496.562 574.423 493.317 574.423 493.317C574.423 493.317 573.593 522.528 589.686 555.023C602.006 579.873 621.134 599.289 629.497 607.469Z" fill="#5C9A93"/>
<path d="M525.27 544.345L492.609 549.393L448.578 556.207C448.578 556.207 439.173 518.634 439.5 517.314L464.302 513.541L519.554 505.126L525.27 544.345Z" fill="#A1D1CE"/>
<path d="M407.235 228.057C405.661 230.464 403.81 232.034 403.101 231.566C402.391 231.098 403.1 228.766 404.675 226.366C406.25 223.959 408.101 222.39 408.81 222.857C409.519 223.318 408.817 225.65 407.235 228.057Z" fill="#3E2B2C"/>
<path d="M426.832 235.361C425.251 237.769 423.399 239.338 422.697 238.871C421.988 238.403 422.697 236.078 424.272 233.671C425.853 231.264 427.705 229.694 428.407 230.162C429.116 230.622 428.407 232.954 426.832 235.361Z" fill="#3E2B2C"/>
<path d="M449.578 343.719C449.117 345.794 448.146 347.341 447.401 347.183C446.663 347.017 446.429 345.198 446.89 343.123C447.351 341.048 448.323 339.501 449.06 339.659C449.805 339.825 450.039 341.644 449.578 343.719Z" fill="#3E2B2C"/>
<path d="M471.743 339.402C471.282 341.477 470.31 343.024 469.572 342.866C468.835 342.7 468.608 340.881 469.062 338.806C469.523 336.731 470.495 335.184 471.232 335.35C471.977 335.516 472.204 337.327 471.743 339.402Z" fill="#3E2B2C"/>
<path d="M415.123 247.624C415.017 247.624 414.91 247.579 414.847 247.496C414.847 247.496 411.782 243.912 409.811 241.557C409.676 241.399 409.697 241.172 409.853 241.036C410.009 240.901 410.243 240.923 410.371 241.082C411.889 242.893 414.059 245.436 414.974 246.507L420.833 228.23C420.896 228.034 421.102 227.929 421.294 227.989C421.485 228.049 421.592 228.261 421.528 228.457L415.471 247.368C415.428 247.496 415.322 247.594 415.194 247.617C415.173 247.624 415.151 247.624 415.123 247.624Z" fill="#3E2B2C"/>
<path d="M385.546 213.417C385.483 213.228 385.27 213.123 385.078 213.191C384.887 213.259 384.78 213.47 384.851 213.658C384.858 213.696 385.575 215.817 385.986 218.639C385.121 219.077 382.497 220.412 383 222.095C383.128 222.525 383.397 222.835 383.787 222.986C383.986 223.061 384.199 223.099 384.426 223.099C385.071 223.099 385.78 222.827 386.263 222.608C386.256 223.106 386.234 223.604 386.192 224.11C386.171 224.314 386.32 224.495 386.525 224.518C386.532 224.518 386.547 224.518 386.561 224.518C386.752 224.518 386.908 224.374 386.929 224.186C387.419 218.963 385.624 213.643 385.546 213.417ZM384.05 222.299C383.873 222.231 383.766 222.103 383.702 221.891C383.56 221.409 383.887 220.594 386.085 219.431C386.171 220.186 386.234 220.971 386.256 221.778C385.61 222.125 384.582 222.51 384.05 222.299Z" fill="#3E2B2C"/>
<path d="M401.222 244.161C401.222 244.161 409.477 249.224 414.534 250.59C414.534 250.59 409.357 253.805 405.172 251.579C400.973 249.36 401.222 244.161 401.222 244.161Z" fill="white"/>
<path d="M411.562 268.392L383.632 318.748C383.561 318.869 383.44 318.944 383.305 318.944C383.277 318.944 383.248 318.937 383.206 318.922C383.05 318.884 382.929 318.726 382.944 318.559L384.639 261.464L384.66 260.725L384.781 256.665C385.029 256.703 385.277 256.755 385.511 256.801L385.383 261.049V261.14L383.724 317.058L410.966 267.954C411.158 268.09 411.364 268.241 411.562 268.392Z" fill="#C3942D"/>
<path d="M466.438 356.812C465.338 356.812 464.125 356.751 462.806 356.638C462.6 356.615 462.451 356.442 462.473 356.238C462.494 356.034 462.678 355.883 462.877 355.898C469.821 356.51 472.268 355.385 473.097 354.329C473.601 353.687 473.679 352.842 473.339 351.816C472.473 349.197 467.991 350.065 467.948 350.08C467.849 350.103 467.743 350.08 467.657 350.02C467.579 349.959 467.523 349.869 467.508 349.763L465.452 334.067C465.423 333.863 465.565 333.682 465.771 333.652C465.976 333.622 466.161 333.765 466.182 333.969L468.189 349.28C469.423 349.114 473.126 348.835 474.041 351.582C474.466 352.857 474.346 353.936 473.672 354.789C472.615 356.14 470.189 356.812 466.438 356.812Z" fill="#3E2B2C"/>
<path d="M462.841 344.775C462.728 344.775 462.614 344.722 462.543 344.624C462.423 344.458 462.458 344.224 462.621 344.104C462.756 343.998 466.082 341.613 470.444 342.081C470.65 342.104 470.792 342.285 470.771 342.489C470.749 342.693 470.565 342.836 470.359 342.821C466.288 342.376 463.082 344.677 463.054 344.7C462.99 344.753 462.912 344.775 462.841 344.775Z" fill="#3E2B2C"/>
<path d="M450.515 348.933C450.458 348.933 450.402 348.918 450.352 348.896C449.565 348.669 439.72 348.307 433.266 348.111C433.067 348.103 432.904 347.93 432.911 347.726C432.918 347.522 433.053 347.356 433.294 347.364C440.976 347.59 450.239 347.93 450.721 348.247C450.891 348.36 450.934 348.586 450.827 348.76C450.749 348.873 450.636 348.933 450.515 348.933Z" fill="#3E2B2C"/>
<path d="M435.726 360.472C435.585 360.472 435.457 360.389 435.393 360.253C433.244 355.589 430.123 353.295 430.088 353.273C429.925 353.152 429.889 352.925 430.003 352.752C430.123 352.586 430.357 352.548 430.52 352.669C430.655 352.767 433.826 355.091 436.06 359.944C436.145 360.132 436.067 360.351 435.875 360.434C435.833 360.464 435.776 360.472 435.726 360.472Z" fill="#3E2B2C"/>
<path d="M433.13 359.475C433.038 359.475 432.939 359.468 432.847 359.453C432.506 359.392 432.024 359.166 431.698 358.472C431.4 357.853 431.35 357.272 431.549 356.729C431.889 355.808 432.826 355.385 432.868 355.37C433.052 355.287 433.272 355.37 433.35 355.559C433.435 355.748 433.35 355.966 433.166 356.049C433.159 356.049 432.464 356.374 432.237 356.993C432.109 357.34 432.152 357.732 432.357 358.155C432.521 358.494 432.726 358.683 432.982 358.728C433.556 358.834 434.315 358.26 434.542 358.049C434.691 357.913 434.925 357.913 435.067 358.064C435.209 358.215 435.202 358.449 435.053 358.585C434.939 358.683 434.067 359.475 433.13 359.475Z" fill="#3E2B2C"/>
<path d="M464.941 366.999C462.366 366.999 460.189 366.35 459.827 366.162C459.642 366.064 459.579 365.837 459.671 365.664C459.763 365.482 459.99 365.415 460.174 365.513C460.749 365.822 468.111 367.829 471.7 363.664C471.835 363.505 472.069 363.49 472.225 363.626C472.381 363.762 472.395 363.996 472.26 364.147C470.324 366.38 467.451 366.999 464.941 366.999Z" fill="#EA504F"/>
<path d="M460.571 377.964C451.784 377.964 447.776 372.425 447.606 372.183C447.493 372.017 447.528 371.783 447.691 371.67C447.861 371.55 448.088 371.595 448.209 371.761C448.252 371.821 452.287 377.413 460.983 377.224C461.11 377.224 473.161 377.081 478.296 368.093C478.395 367.912 478.615 367.852 478.799 367.958C478.977 368.063 479.041 368.282 478.934 368.463C473.593 377.82 461.118 377.964 460.99 377.964C460.848 377.956 460.706 377.964 460.571 377.964Z" fill="#3E2B2C"/>
<path d="M473.714 395.064C473.899 395.985 474.076 396.898 474.239 397.765C473.211 394.543 472.133 392.226 472.118 392.189C472.033 392 472.111 391.781 472.296 391.698C472.48 391.623 472.7 391.698 472.785 391.879C472.813 391.94 475.09 396.883 476.232 402.429C474.906 399.818 473.877 395.766 473.714 395.064Z" fill="#3E2B2C"/>
<path d="M479.183 393.879C479.318 394.936 479.467 396.151 479.559 397.381C478.672 394.324 477.587 391.864 477.027 390.604C476.701 389.872 476.637 389.729 476.637 389.585C476.637 389.382 476.807 389.223 477.013 389.223C477.204 389.223 477.353 389.359 477.374 389.54C477.403 389.638 477.545 389.97 477.701 390.31C478.048 391.079 478.587 392.31 479.169 393.849C479.176 393.864 479.176 393.879 479.183 393.879Z" fill="#3E2B2C"/>
<path d="M480.765 399.003C480.148 397.637 479.63 395.72 479.247 394.053C479.772 395.479 480.325 397.162 480.765 399.003Z" fill="#601213"/>
<path d="M342.821 325.774C342.814 325.774 342.8 325.774 342.785 325.774C342.587 325.751 342.431 325.577 342.452 325.366C342.473 325.102 344.949 299.09 347.367 286.616C349.864 273.787 363.921 260.393 385.015 260.732C385.221 260.74 385.384 260.906 385.377 261.109C385.369 261.313 385.206 261.472 385.008 261.472C385.008 261.472 385.008 261.472 385.001 261.472C364.304 261.147 350.531 274.232 348.091 286.759C345.672 299.203 343.211 325.185 343.183 325.442C343.168 325.63 343.012 325.774 342.821 325.774Z" fill="#C3942D"/>
<path d="M364.744 331.63C364.701 331.63 364.659 331.622 364.616 331.607C364.503 331.562 353.041 327.344 346.09 326.106C339.196 324.876 335.295 325.751 335.253 325.759C335.146 325.781 335.04 325.759 334.955 325.698C334.87 325.638 334.813 325.54 334.806 325.434C334.771 325.049 331.508 286.563 342.53 270.777C342.643 270.611 342.877 270.573 343.048 270.686C343.218 270.807 343.253 271.033 343.14 271.199C332.877 285.899 335.196 320.778 335.515 324.959C336.707 324.755 340.395 324.34 346.225 325.382C352.417 326.483 362.105 329.909 364.389 330.739C364.425 326.151 364.687 292.902 364.382 283.16C364.375 282.956 364.538 282.783 364.744 282.775C364.935 282.768 365.12 282.934 365.127 283.137C365.453 293.574 365.127 330.898 365.127 331.275C365.127 331.396 365.063 331.509 364.964 331.577C364.886 331.607 364.815 331.63 364.744 331.63Z" fill="#C3942D"/>
<path d="M410.094 351.288C409.938 351.288 409.796 351.19 409.746 351.039C407.299 343.809 407.59 337.553 407.718 334.882C407.739 334.467 407.753 334.135 407.753 333.901C407.753 333.871 407.76 333.841 407.767 333.811C407.81 333.629 412.47 315.669 414.172 307.127C414.215 306.931 414.406 306.795 414.605 306.84C414.803 306.878 414.931 307.074 414.895 307.278C413.229 315.631 408.753 332.935 408.498 333.954C408.498 334.195 408.484 334.52 408.463 334.927C408.342 337.553 408.051 343.711 410.448 350.812C410.512 351.001 410.413 351.22 410.221 351.28C410.172 351.288 410.129 351.288 410.094 351.288Z" fill="#C3942D"/>
<path d="M335.012 320.937C334.976 321.042 331.288 332.128 328.692 339.236C326.21 346.043 319.727 360.064 314.046 370.101C309.493 378.115 303.23 386.219 300.535 389.208C300.35 389.042 300.173 388.883 299.981 388.732C302.577 385.865 308.833 377.775 313.386 369.738C319.068 359.732 325.522 345.756 327.997 338.987C330.586 331.886 334.267 320.808 334.31 320.703C334.366 320.514 334.586 320.408 334.778 320.461C334.976 320.529 335.083 320.74 335.012 320.937Z" fill="#C3942D"/>
<path d="M291.329 432.501C291.081 432.433 290.847 432.365 290.613 432.297C286.839 431.18 283.414 430.32 282.016 429.973C281.917 429.943 281.804 429.965 281.726 430.018C281.633 430.094 281.577 430.177 281.57 430.29L280.328 440.734L280.307 440.832C280.307 440.84 280.314 440.84 280.307 440.855L276.888 469.599C276.874 469.712 276.917 469.833 277.009 469.916C279.279 471.923 282.222 473.462 285.3 474.639C285.534 474.73 285.783 474.828 286.017 474.904C293.776 477.733 302.117 478.345 302.606 478.375H302.635C302.727 478.375 302.812 478.345 302.883 478.284C302.954 478.216 303.003 478.133 303.003 478.02C303.06 477.009 303.89 461.086 304.464 449.933C304.471 449.676 304.493 449.427 304.507 449.171C304.784 443.677 304.989 439.489 304.989 439.142C304.975 437.066 297.776 434.44 291.329 432.501ZM303.713 449.752C303.181 460.234 302.422 475.039 302.287 477.598C299.741 477.364 284.974 475.817 277.64 469.478L280.981 441.36L281.08 440.591L282.243 430.788C284.825 431.429 287.825 432.244 290.754 433.12C290.797 433.135 290.832 433.15 290.882 433.158H290.889C297.748 435.225 304.23 437.663 304.23 439.142C304.23 439.466 304.032 443.571 303.755 448.99C303.734 449.239 303.72 449.495 303.713 449.752Z" fill="#3E2B2C"/>
<path d="M304.599 449.956C304.57 449.956 304.542 449.956 304.514 449.941C295.953 447.979 280.675 441.225 280.519 441.157C280.328 441.074 280.25 440.855 280.328 440.666C280.413 440.477 280.633 440.394 280.817 440.477C280.973 440.545 296.187 447.269 304.677 449.216C304.875 449.261 305.003 449.458 304.953 449.661C304.918 449.842 304.769 449.956 304.599 449.956Z" fill="#3E2B2C"/>
<path d="M300.79 389.419C299.499 393.721 297.485 400.761 295.598 409.115C292.761 421.581 291.556 430.69 291.329 432.501C291.3 432.72 291.293 432.825 291.293 432.841C291.272 433.029 291.102 433.165 290.924 433.165H290.875C290.825 433.157 290.79 433.142 290.747 433.127C290.619 433.059 290.534 432.908 290.548 432.75C290.548 432.742 290.57 432.584 290.605 432.297C290.861 430.222 292.088 421.189 294.868 408.964C296.818 400.391 298.882 393.2 300.194 388.914C300.393 389.065 300.584 389.238 300.79 389.419Z" fill="#3E2B2C"/>
<path d="M295.492 661.81L295.414 661.78L294.676 661.554C292.428 652.106 282.427 609.069 281.562 587.034C280.583 562.328 283.505 539.741 283.534 539.515C281.434 514.401 284.924 478.269 285.285 474.632C285.307 474.451 285.314 474.353 285.314 474.338C285.335 474.134 285.519 473.998 285.718 474.006C285.924 474.028 286.073 474.217 286.051 474.413C286.051 474.436 286.03 474.602 286.002 474.896C285.548 479.447 282.207 514.786 284.257 539.538C284.229 539.847 281.321 562.373 282.285 587.019C283.172 609.341 293.47 653.328 295.492 661.81Z" fill="#3E2B2C"/>
<path d="M390.511 457.23C390.156 455.472 390.121 453.299 390.121 453.299C390.121 453.299 390.121 455.494 389.766 457.26C389.823 453.608 389.865 448.401 389.667 445.224C389.653 445.013 389.816 444.847 390.014 444.832C390.22 444.809 390.397 444.983 390.412 445.179C390.61 448.363 390.568 453.563 390.511 457.23Z" fill="#3E2B2C"/>
<path d="M394.348 457.781C394.199 455.744 394.32 453.374 394.32 453.374C394.32 453.374 394.143 454.31 393.845 455.457C394.178 452.099 394.526 447.835 394.44 445.216C394.44 445.005 394.597 444.839 394.802 444.832C395.022 444.832 395.178 444.99 395.185 445.194C395.292 448.492 394.717 454.31 394.348 457.781Z" fill="#3E2B2C"/>
<path d="M399.952 447.767C399.845 451.397 398.98 456.347 398.434 459.215C398.221 457.547 398.59 455.027 398.59 455.027C398.59 455.027 398.491 455.291 398.313 455.721C398.725 453.148 399.143 450.152 399.214 447.752C399.214 447.548 399.363 447.397 399.59 447.397C399.789 447.39 399.952 447.571 399.952 447.767Z" fill="#3E2B2C"/>
<path d="M455.486 453.11C455.465 453.208 455.415 453.299 455.337 453.352C455.266 453.389 449.139 457.811 446.5 464.203C443.862 470.61 443.819 475.575 443.819 475.628C443.812 475.696 443.791 475.764 443.755 475.817C443.727 475.87 443.684 475.915 443.635 475.945C443.578 475.983 443.507 476.006 443.436 476.006C443.386 476.006 443.33 475.983 443.28 475.968C442.904 475.802 435.386 472.202 424.123 456.31C423.158 454.551 422.151 452.635 421.158 450.605C432.556 468.157 441.003 473.802 443.096 475.017C443.174 473.591 443.571 469.84 445.372 465.063C445.507 464.694 445.656 464.316 445.819 463.931C448.224 458.098 453.302 453.97 454.6 452.982C450.458 447.148 442.571 426.555 438.152 409.983C433.648 393.064 421.804 390.883 421.69 390.861C421.492 390.83 421.35 390.634 421.385 390.438C421.421 390.227 421.598 390.091 421.818 390.129C421.931 390.151 434.237 392.423 438.868 409.794C443.344 426.592 451.38 447.511 455.401 452.838C455.472 452.899 455.501 453.004 455.486 453.11Z" fill="#48AEA7"/>
<path d="M516.901 449.956C516.773 449.956 516.66 449.895 516.589 449.782C516.553 449.729 513.099 444.311 508.411 439.127C508.347 439.051 508.312 438.961 508.312 438.87C508.319 438.795 508.376 431.565 501.304 420.283C494.191 408.934 491.07 406.391 491.034 406.368C490.871 406.24 490.843 406.006 490.97 405.847C491.098 405.689 491.332 405.659 491.488 405.787C491.616 405.893 494.744 408.436 501.929 419.891C508.652 430.622 509.035 437.61 509.05 438.742C512.816 442.93 515.787 447.246 516.816 448.793C517.717 446.711 520.972 440.462 528.306 438.523C528.505 438.47 528.71 438.591 528.753 438.787C528.802 438.983 528.689 439.187 528.49 439.24C520.071 441.473 517.27 449.631 517.249 449.714C517.206 449.85 517.085 449.948 516.944 449.963C516.929 449.956 516.915 449.956 516.901 449.956Z" fill="#48AEA7"/>
<path d="M499.362 490.434C490.957 490.434 473.346 490.087 463.303 487.415C449.763 483.808 443.188 475.975 443.124 475.892C442.975 475.719 443.004 475.447 443.181 475.304C443.358 475.153 443.621 475.183 443.77 475.356C443.834 475.432 450.252 483.069 463.516 486.6C476.864 490.155 503.787 489.566 504.064 489.559C504.298 489.581 504.482 489.732 504.489 489.966C504.497 490.2 504.312 490.389 504.085 490.396C504.007 490.396 502.213 490.434 499.362 490.434Z" fill="#48AEA7"/>
<path d="M607.708 455.887C607.615 455.887 607.53 455.857 607.459 455.796C605.168 453.713 600.111 451.389 600.055 451.367C599.87 451.284 599.785 451.057 599.877 450.876C599.955 450.687 600.182 450.604 600.36 450.687C600.572 450.786 605.573 453.08 607.956 455.238C608.105 455.374 608.119 455.608 607.984 455.766C607.913 455.849 607.807 455.887 607.708 455.887Z" fill="#3E2B2C"/>
<path d="M613.027 453.857C612.928 453.857 612.829 453.819 612.758 453.736C611.332 452.174 608.679 450.612 606.743 449.457C605.395 448.658 604.729 448.265 604.516 447.971C604.395 447.805 604.431 447.578 604.594 447.45C604.757 447.329 604.991 447.367 605.112 447.533C605.246 447.714 606.239 448.303 607.119 448.824C609.098 449.986 611.807 451.593 613.304 453.238C613.446 453.389 613.431 453.623 613.282 453.759C613.204 453.827 613.119 453.857 613.027 453.857Z" fill="#3E2B2C"/>
<path d="M541.392 478.971C541.151 479.069 540.81 479.22 540.363 479.394C540.363 479.394 540.363 479.394 540.356 479.394C536.533 478.201 531.079 477.99 531.015 477.983C530.817 477.983 530.646 477.809 530.654 477.598C530.661 477.401 530.831 477.243 531.037 477.243C531.342 477.266 537.484 477.507 541.392 478.971Z" fill="#3E2B2C"/>
<path d="M527.349 467.312C527.157 467.312 526.98 467.191 526.923 467.003C523.966 457.947 516.646 449.971 516.568 449.895C516.398 449.714 516.412 449.427 516.59 449.254C516.774 449.088 517.058 449.103 517.228 449.276C517.299 449.36 524.753 457.479 527.775 466.716C527.853 466.957 527.725 467.206 527.491 467.282C527.441 467.305 527.399 467.312 527.349 467.312Z" fill="#48AEA7"/>
<path d="M545.952 466.286C534.299 466.286 526.604 464.716 526.504 464.694C526.263 464.641 526.107 464.399 526.157 464.158C526.206 463.916 526.447 463.758 526.689 463.803C526.809 463.833 539.321 466.376 556.626 464.935C556.868 464.92 557.095 465.101 557.109 465.35C557.13 465.599 556.946 465.818 556.697 465.841C552.86 466.165 549.25 466.286 545.952 466.286Z" fill="#48AEA7"/>
<path d="M459.09 511.994C458.941 511.994 458.799 511.903 458.743 511.752C458.672 511.556 458.764 511.345 458.955 511.269C459.473 511.066 511.228 490.887 521.973 486.163C533.094 481.265 547.691 475.885 553.216 474.632C553.422 474.587 553.606 474.715 553.663 474.911C553.705 475.108 553.578 475.311 553.379 475.349C547.889 476.594 533.357 481.96 522.271 486.842C511.504 491.574 459.743 511.76 459.218 511.956C459.182 511.986 459.133 511.994 459.09 511.994Z" fill="#601213"/>
<path d="M604.225 521.804C604.062 521.804 603.913 521.698 603.871 521.532C603.835 521.389 599.948 507.224 593.367 492.917C586.87 478.798 581.501 476.768 581.451 476.745C581.252 476.677 581.153 476.466 581.224 476.27C581.288 476.081 581.501 475.983 581.692 476.043C581.926 476.119 587.38 478.126 594.04 492.607C600.651 506.975 604.544 521.193 604.587 521.336C604.637 521.532 604.523 521.736 604.332 521.789C604.289 521.804 604.254 521.804 604.225 521.804Z" fill="#3E2B2C"/>
<path d="M613.013 520.823C612.815 520.823 612.652 520.672 612.645 520.476C612.609 519.706 611.744 501.55 618.829 493.075C618.957 492.917 619.191 492.902 619.347 493.03C619.503 493.158 619.524 493.4 619.39 493.551C612.503 501.799 613.375 520.249 613.389 520.431C613.396 520.634 613.247 520.808 613.035 520.815C613.028 520.823 613.02 520.823 613.013 520.823Z" fill="#3E2B2C"/>
<path d="M633.248 605.198C633.248 605.198 630.333 595.856 628.56 590.347C626.815 584.906 607.077 530.625 606.878 530.082C606.8 529.863 606.914 529.622 607.126 529.546C607.346 529.463 607.58 529.577 607.665 529.795C607.864 530.346 627.61 584.634 629.362 590.09C631.128 595.607 634.05 604.949 634.05 604.949L633.248 605.198Z" fill="#3E2B2C"/>
<path opacity="0.71" d="M450.451 346.783C450.451 343.213 453.338 340.315 456.898 340.315C460.459 340.315 463.346 343.213 463.346 346.783C463.346 350.352 460.459 353.25 456.898 353.25C453.338 353.242 450.451 350.352 450.451 346.783Z" fill="#D9F1FD"/>
<path d="M456.898 353.612C453.139 353.612 450.082 350.548 450.082 346.775C450.082 343.01 453.139 339.938 456.898 339.938C460.657 339.938 463.714 343.002 463.714 346.775C463.714 350.548 460.657 353.612 456.898 353.612ZM456.898 340.685C453.543 340.685 450.82 343.417 450.82 346.783C450.82 350.141 453.543 352.873 456.898 352.873C460.246 352.873 462.976 350.141 462.976 346.783C462.976 343.417 460.246 340.685 456.898 340.685Z" fill="#3E2B2C"/>
<path opacity="0.71" d="M470.565 342.398C470.565 338.829 473.452 335.931 477.013 335.931C480.573 335.931 483.46 338.829 483.46 342.398C483.46 345.967 480.573 348.865 477.013 348.865C473.452 348.858 470.565 345.967 470.565 342.398Z" fill="#D9F1FD"/>
<path d="M477.012 349.235C473.253 349.235 470.196 346.164 470.196 342.398C470.196 338.633 473.253 335.561 477.012 335.561C480.771 335.561 483.828 338.633 483.828 342.398C483.828 346.164 480.771 349.235 477.012 349.235ZM477.012 336.301C473.657 336.301 470.934 339.033 470.934 342.398C470.934 345.764 473.665 348.496 477.012 348.496C480.36 348.496 483.091 345.764 483.091 342.398C483.091 339.033 480.36 336.301 477.012 336.301Z" fill="#3E2B2C"/>
<path d="M457.87 391.811C457.579 391.811 457.246 391.789 456.863 391.759C456.657 391.743 456.508 391.562 456.529 391.359C456.551 391.155 456.735 391.004 456.927 391.019C457.7 391.079 458.529 391.117 458.771 390.883C458.983 390.672 458.948 390.046 458.898 389.102C458.87 388.544 458.827 387.865 458.827 387.05V377.594C458.827 377.39 458.99 377.224 459.196 377.224C459.402 377.224 459.565 377.39 459.565 377.594V387.05C459.565 387.85 459.6 388.514 459.636 389.065C459.707 390.257 459.742 390.974 459.281 391.419C458.983 391.713 458.529 391.811 457.87 391.811Z" fill="#3E2B2C"/>
<path d="M372.801 426.992C372.694 426.992 372.588 426.947 372.517 426.856C369.794 423.528 361.389 409.077 355.02 397.705C348.551 386.167 341.444 372.93 338.934 361.943C336.345 350.631 334.813 325.66 334.799 325.411C334.785 325.208 334.941 325.034 335.146 325.019C335.338 325.004 335.529 325.162 335.536 325.366C335.551 325.615 337.083 350.526 339.65 361.785C342.14 372.674 349.218 385.85 355.665 397.343C362.02 408.677 370.396 423.091 373.092 426.381C373.219 426.539 373.198 426.773 373.042 426.902C372.964 426.969 372.879 426.992 372.801 426.992Z" fill="#C3942D"/>
<path d="M392.299 660.814L391.533 660.694C391.533 660.694 391.455 660.52 391.306 660.173C391.299 660.165 391.299 660.143 391.285 660.128C382.809 635.142 377.851 611.439 376.908 591.253C375.383 558.411 376.603 551.574 376.88 550.487C374.603 546.171 343.14 486.766 333.537 468.474C333.537 468.467 333.53 468.452 333.53 468.444C331.891 465.327 330.891 463.411 330.785 463.169C330.707 462.981 330.785 462.762 330.976 462.686C331.161 462.596 331.381 462.686 331.466 462.875C332.175 464.482 377.156 549.416 377.603 550.261C377.653 550.359 377.653 550.465 377.624 550.57C377.553 550.759 375.986 555.672 377.646 591.215C378.603 611.59 383.639 635.549 392.299 660.814Z" fill="#3E2B2C"/>
<path d="M410.797 400.339C410.789 400.339 410.775 400.339 410.761 400.339C410.563 400.324 410.406 400.143 410.428 399.939C410.953 393.758 414.775 382.643 421.599 377.3C428.556 371.852 437.415 371.074 438.429 371.15C438.635 371.165 438.784 371.338 438.77 371.55C438.756 371.753 438.585 371.897 438.373 371.889C438.373 371.889 438.373 371.889 438.365 371.889C438.131 371.889 429.266 372.236 422.053 377.889C414.768 383.594 411.563 395.253 411.158 400.007C411.144 400.195 410.981 400.339 410.797 400.339Z" fill="#601213"/>
<path d="M593.693 661.999C593.04 661.999 592.402 661.712 591.962 661.169L569.89 633.753C569.635 633.436 569.472 633.059 569.422 632.667L556.606 542.262C556.436 541.039 557.28 539.915 558.5 539.734C559.712 539.56 560.84 540.413 561.017 541.636L573.749 631.429L595.438 658.362C596.211 659.32 596.062 660.731 595.104 661.501C594.679 661.833 594.182 661.999 593.693 661.999Z" fill="#C3942D"/>
<path d="M471.622 308.463C470.679 309.685 469.48 310.908 468.061 312.009C466.565 313.172 464.827 314.243 462.834 315.103C453.635 319.058 447.869 317.903 441.549 320.71C436.421 322.989 432.854 326.445 433.279 331.026C433.365 331.977 433.648 332.973 434.102 334.022C434.152 334.143 434.187 334.263 434.251 334.392C437.209 340.648 439.507 340.248 439.677 346.828C439.812 352.269 438.613 357.378 438.613 357.378C438.613 357.378 437.024 349.922 432.854 348.556C432.669 348.496 432.478 348.428 432.279 348.398C427.676 347.568 426.187 349.997 427.024 355.152C428.166 362.245 435.23 363.883 435.23 363.883C435.23 363.883 435.833 365.452 436.755 367.761L436.769 367.792C436.712 367.656 429.492 369.324 423.243 357.378C420.52 352.178 418.768 346.888 417.732 341.727C419.35 334.241 423.272 328.174 427.017 321.782C433.826 310.161 442.883 312.387 456.898 312.009C463.742 311.828 468.523 310.145 471.622 308.463Z" fill="#87AC9A"/>
<path d="M661.505 615.212C656.128 617.521 644.624 619.928 636.716 621.423C631.943 622.313 628.467 622.872 628.467 622.872C627.233 620.894 625.51 609.771 625.51 609.771L628.95 607.786L633.638 605.07L661.505 615.212Z" fill="#FEC415"/>
<path d="M636.716 621.423C631.943 622.313 628.467 622.871 628.467 622.871C627.233 620.894 625.51 609.771 625.51 609.771L628.95 607.786C630.624 612.193 634.418 618.049 636.716 621.423Z" fill="#E4AA24"/>
<path d="M667.909 613.974L661.505 615.212L642.149 608.171L636.113 605.975V603.591L638.979 603.198L643.575 602.564L667.909 613.974Z" fill="#FEC415"/>
<path d="M642.149 608.171L636.113 605.976V603.591L638.979 603.198C639.787 604.564 640.865 606.285 642.149 608.171Z" fill="#E4AA24"/>
<path d="M348.148 244.538C347.999 244.538 347.857 244.44 347.8 244.296C347.757 244.183 346.779 241.451 347.921 239.406C348.495 238.38 349.481 237.724 350.864 237.437C351.056 237.399 351.261 237.527 351.297 237.731C351.332 237.935 351.204 238.131 351.006 238.169C349.843 238.403 349.02 238.946 348.559 239.769C347.58 241.519 348.474 244.017 348.488 244.04C348.559 244.228 348.46 244.447 348.268 244.515C348.233 244.53 348.183 244.538 348.148 244.538Z" fill="#C3942D"/>
<path d="M370.006 243.459C369.85 243.459 369.701 243.353 369.651 243.202C369.595 243.006 369.687 242.802 369.878 242.742C369.942 242.719 370.105 242.689 370.325 242.659C371.205 242.531 373.545 242.183 374.396 240.75C374.829 240.025 374.836 239.074 374.418 237.927C374.347 237.739 374.446 237.52 374.637 237.452C374.829 237.384 375.042 237.482 375.113 237.671C375.609 239.037 375.588 240.199 375.035 241.127C374.006 242.863 371.503 243.232 370.439 243.391C370.283 243.414 370.169 243.429 370.112 243.444C370.077 243.459 370.041 243.459 370.006 243.459Z" fill="#C3942D"/>
<path d="M338.139 264.385C336.962 264.385 335.87 264.143 335.217 264.007C334.99 263.955 334.728 263.902 334.657 263.902C334.451 263.902 334.288 263.736 334.288 263.532C334.288 263.328 334.451 263.162 334.657 263.162C334.799 263.162 334.99 263.2 335.373 263.283C336.912 263.615 340.508 264.392 341.898 261.728C341.991 261.547 342.218 261.479 342.395 261.57C342.579 261.661 342.643 261.887 342.551 262.068C341.593 263.917 339.792 264.385 338.139 264.385Z" fill="#C3942D"/>
<path d="M402.824 196.498C402.739 196.498 402.654 196.468 402.59 196.415C402.434 196.287 402.413 196.053 402.54 195.894C402.746 195.645 407.647 189.752 411.371 191.684C411.548 191.782 411.619 192.001 411.534 192.182C411.441 192.363 411.215 192.438 411.037 192.34C407.846 190.688 403.164 196.31 403.122 196.37C403.037 196.453 402.93 196.498 402.824 196.498Z" fill="#C3942D"/>
<path d="M430.797 200.784C430.627 200.784 430.471 200.664 430.435 200.49C429.811 197.509 427.449 195.268 427.428 195.245C427.279 195.102 427.272 194.868 427.407 194.725C427.548 194.574 427.782 194.566 427.931 194.71C428.038 194.808 430.492 197.132 431.166 200.339C431.208 200.543 431.081 200.739 430.875 200.777C430.846 200.777 430.818 200.784 430.797 200.784Z" fill="#C3942D"/>
<path d="M444.67 203.909C444.457 203.909 444.294 203.735 444.301 203.531C444.329 202.369 443.599 200.498 439.975 198.143C439.719 197.977 439.663 197.939 439.613 197.811C439.542 197.623 439.648 197.404 439.84 197.336C439.975 197.29 440.116 197.321 440.216 197.411C440.244 197.434 440.301 197.472 440.372 197.517C443.514 199.554 445.081 201.584 445.032 203.546C445.039 203.75 444.876 203.909 444.67 203.909Z" fill="#C3942D"/>
<path d="M367.041 232.018C366.914 232.018 366.793 231.951 366.722 231.837C366.006 230.622 362.14 228.826 359.147 230.29C358.963 230.381 358.743 230.305 358.658 230.117C358.566 229.936 358.644 229.709 358.828 229.626C362.112 228.019 366.446 229.906 367.361 231.46C367.467 231.634 367.403 231.86 367.233 231.966C367.169 232.003 367.105 232.018 367.041 232.018Z" fill="#C3942D"/>
<path d="M597.976 675.975C589.905 675.975 583.33 669.372 583.33 661.252C583.33 653.132 589.905 646.521 597.976 646.521C606.055 646.521 612.622 653.125 612.622 661.252C612.622 669.372 606.055 675.975 597.976 675.975Z" fill="#82C1C1"/>
<path d="M593.643 661.252C593.643 658.845 595.579 656.89 597.976 656.89C600.373 656.89 602.31 658.837 602.31 661.252C602.31 663.659 600.366 665.606 597.976 665.606C595.586 665.606 593.643 663.659 593.643 661.252Z" fill="#A1D1CE"/>
<path d="M643.986 675.975C636.624 675.975 630.631 669.372 630.631 661.252C630.631 653.132 636.624 646.521 643.986 646.521C651.348 646.521 657.341 653.125 657.341 661.252C657.341 669.372 651.348 675.975 643.986 675.975Z" fill="#82C1C1"/>
<path d="M640.036 661.252C640.036 658.845 641.802 656.898 643.987 656.898C646.164 656.898 647.937 658.845 647.937 661.252C647.937 663.659 646.164 665.606 643.987 665.606C641.802 665.606 640.036 663.659 640.036 661.252Z" fill="#A1D1CE"/>
<path d="M571.613 634.583C570.549 634.583 569.606 633.813 569.422 632.727C569.216 631.512 570.024 630.357 571.237 630.146L669.718 613.129C670.938 612.91 672.08 613.733 672.285 614.948C672.491 616.163 671.683 617.317 670.47 617.521L571.982 634.538C571.869 634.568 571.741 634.583 571.613 634.583Z" fill="#9E772B"/>
<path d="M448.238 387.125C448.167 387.125 448.089 387.102 448.025 387.057C447.777 386.884 447.515 386.703 447.238 386.521C445.33 385.254 442.713 383.518 440.805 378.432C439.606 375.232 437.911 371.278 436.677 368.388C435.542 365.739 434.947 364.343 434.869 363.966C434.826 363.762 434.954 363.566 435.152 363.528C435.351 363.483 435.549 363.611 435.585 363.815C435.656 364.139 436.436 365.973 437.351 368.101C438.592 370.999 440.287 374.961 441.493 378.175C443.316 383.035 445.713 384.627 447.642 385.91C447.926 386.099 448.196 386.272 448.451 386.461C448.614 386.574 448.657 386.808 448.536 386.974C448.465 387.072 448.352 387.125 448.238 387.125Z" fill="#3E2B2C"/>
<path d="M446.365 557.257C445.259 557.257 444.301 556.426 444.159 555.294C444.01 554.072 444.876 552.955 446.096 552.804C462.884 550.721 541.512 541.009 556.648 539.832C556.69 535.002 556.024 522.566 548.108 519.389C537.491 515.133 522.915 519.465 522.766 519.51C521.589 519.865 520.348 519.201 519.993 518.023C519.639 516.839 520.298 515.601 521.476 515.239C522.128 515.042 537.675 510.386 549.768 515.246C562.648 520.415 561.088 541.243 561.017 542.126C560.967 542.73 560.676 543.288 560.208 543.673C559.74 544.058 559.137 544.232 558.542 544.164C558.506 544.164 558.471 544.164 558.428 544.164C553.775 544.164 489.268 551.951 446.649 557.241C446.549 557.249 446.457 557.257 446.365 557.257Z" fill="#C3942D"/>
<path d="M525.277 546.578C524.192 546.578 523.242 545.778 523.079 544.669L517.851 508.839C516.348 498.539 514.724 493.143 496.68 492.675C477.445 492.192 436.57 499.218 436.159 499.286C434.946 499.489 433.797 498.682 433.591 497.467C433.379 496.252 434.194 495.097 435.407 494.886C437.102 494.592 477.126 487.695 496.801 488.208C517.851 488.759 520.547 496.478 522.256 508.19L527.49 544.02C527.667 545.243 526.823 546.375 525.611 546.548C525.49 546.571 525.384 546.578 525.277 546.578Z" fill="#C3942D"/>
<path d="M439.507 604.79C439.386 604.79 439.273 604.768 439.152 604.738C438.741 604.602 438.45 604.24 438.401 603.802C438.379 603.636 436.486 586.77 434.727 570.032C431.102 535.561 431.457 535.282 432.166 534.731C432.648 534.353 433.351 534.436 433.727 534.919C433.975 535.236 434.024 535.651 433.89 535.998C433.606 539.032 437.486 575.617 440.344 601.168L486.878 551.891C487.304 551.438 488.006 551.431 488.446 551.846C488.893 552.268 488.914 552.978 488.496 553.423L440.316 604.436C440.103 604.67 439.805 604.79 439.507 604.79Z" fill="#A1D1CE"/>
<path d="M460.225 664.014C459.764 664.014 459.338 663.727 459.175 663.267L438.451 604.043C438.323 603.674 438.394 603.251 438.649 602.957C438.905 602.655 439.302 602.511 439.692 602.579L505.667 613.997C506.27 614.103 506.674 614.676 506.575 615.28C506.469 615.891 505.894 616.298 505.284 616.185L441.174 605.092L461.268 662.527C461.473 663.108 461.168 663.742 460.587 663.946C460.473 663.991 460.353 664.014 460.225 664.014Z" fill="#A1D1CE"/>
<path d="M399.129 647.593C398.852 647.593 398.576 647.495 398.363 647.284C397.916 646.861 397.895 646.152 398.32 645.706L437.656 604.013L383.149 577.488C382.596 577.216 382.362 576.552 382.632 576.001C382.901 575.443 383.568 575.216 384.121 575.488L439.996 602.677C440.316 602.828 440.543 603.13 440.606 603.477C440.67 603.824 440.564 604.187 440.323 604.443L399.945 647.246C399.718 647.48 399.427 647.593 399.129 647.593Z" fill="#A1D1CE"/>
<path d="M439.507 612.774C444.521 612.774 448.586 608.7 448.586 603.674C448.586 598.647 444.521 594.573 439.507 594.573C434.493 594.573 430.429 598.647 430.429 603.674C430.429 608.7 434.493 612.774 439.507 612.774Z" fill="#A1D1CE"/>
<path d="M443.444 523.419C401.413 523.419 367.333 557.596 367.333 599.75C367.333 641.903 401.406 676.08 443.444 676.08C485.481 676.08 519.554 641.903 519.554 599.75C519.554 557.596 485.481 523.419 443.444 523.419ZM443.444 666.527C406.676 666.527 376.865 636.628 376.865 599.75C376.865 562.871 406.676 532.98 443.444 532.98C480.212 532.98 510.022 562.878 510.022 599.75C510.022 636.628 480.212 666.527 443.444 666.527Z" fill="#D9E8E7"/>
<path d="M443.699 666.119C407.264 666.119 377.617 636.387 377.617 599.848C377.617 563.301 407.264 533.569 443.699 533.569C480.134 533.569 509.781 563.301 509.781 599.848C509.781 636.387 480.141 666.119 443.699 666.119ZM443.699 536.919C409.101 536.919 380.958 565.15 380.958 599.848C380.958 634.546 409.101 662.776 443.699 662.776C478.297 662.776 506.44 634.546 506.44 599.848C506.447 565.15 478.297 536.919 443.699 536.919Z" fill="#82C1C1"/>
</g>
<defs>
<clipPath id="clip0">
<rect width="766" height="815" fill="white"/>
</clipPath>
</defs>
</svg>
